Coordinates
version=1
nRows=29
nColumns=24
inDegrees=yes

Units are S.I. units (second, meters, Newtons, ...)
Angles are in degrees.

endheader
time	pelvis_tilt	pelvis_list	pelvis_rotation	pelvis_tx	pelvis_ty	pelvis_tz	hip_flexion_r	hip_adduction_r	hip_rotation_r	knee_angle_r	ankle_angle_r	subtalar_angle_r	mtp_angle_r	hip_flexion_l	hip_adduction_l	hip_rotation_l	knee_angle_l	ankle_angle_l	subtalar_angle_l	mtp_angle_l	lumbar_extension	lumbar_bending	lumbar_rotation
      0.01000000	     64.97739881	     -5.27206728	      2.17813231	      0.64926327	      1.01333795	     -0.21721900	      6.96577804	     -1.79845954	      9.95059315	    -13.23290519	    -26.43428162	     28.03343579	     62.14649581	     -6.40294988	    -15.04523879	      6.35796732	    -57.46459360	    -11.38114978	     33.10526821	     33.28275153	      0.00000000	      0.00000000	      0.00000000
      0.02000000	     65.24974192	     -5.36220050	      2.11220637	      0.64913606	      1.01331161	     -0.21727828	      6.68159002	     -1.70119130	      9.98799480	    -13.23601134	    -26.52072306	     28.03454759	     62.19456558	     -6.72399876	    -15.12392978	      6.25325728	    -57.48932382	    -11.23164790	     33.03269291	     33.26963280	      0.00000000	      0.00000000	      0.00000000
      0.03000000	     65.37916809	     -5.40605722	      2.07651047	      0.64907925	      1.01331272	     -0.21728098	      6.55143758	     -1.65228660	      9.98997237	    -13.23835552	    -26.58402760	     28.02884178	     62.23781659	     -6.88067162	    -15.16575965	      6.19582646	    -57.49715218	    -11.14564340	     32.97746336	     33.26019174	      0.00000000	      0.00000000	      0.00000000
      0.04000000	     65.40565705	     -5.41743589	      2.06280452	      0.64907141	      1.01332892	     -0.21725514	      6.53520711	     -1.63789844	      9.97128520	    -13.23626553	    -26.63040309	     28.01617782	     62.27862037	     -6.91679750	    -15.17961469	      6.17405948	    -57.49524112	    -11.10790483	     32.93424946	     33.25403755	      0.00000000	      0.00000000	      0.00000000
      0.05000000	     65.37516852	     -5.41129736	      2.06218758	      0.64908713	      1.01334298	     -0.21722656	      6.58536591	     -1.64215413	      9.94892467	    -13.22583088	    -26.66657138	     27.99629099	     62.31929537	     -6.88398812	    -15.17609288	      6.17445014	    -57.49082438	    -11.10089600	     32.89732883	     33.25073586	      0.00000000	      0.00000000	      0.00000000
      0.06000000	     65.32855997	     -5.39970598	      2.06744469	      0.64910614	      1.01334245	     -0.21720637	      6.65812641	     -1.65114961	      9.93775807	    -13.20410239	    -26.69797183	     27.96886256	     62.36131734	     -6.82933365	    -15.16522956	      6.18481536	    -57.48859631	    -11.10878049	     32.86213200	     33.24990137	      0.00000000	      0.00000000	      0.00000000
      0.07000000	     65.29531538	     -5.39023406	      2.07394917	      0.64911687	      1.01332947	     -0.21719245	      6.72089085	     -1.65532182	      9.94779067	    -13.16974890	    -26.72787453	     27.93368836	     62.40493722	     -6.78751953	    -15.15492948	      6.19616915	    -57.48970183	    -11.11955961	     32.82596981	     33.25125127	      0.00000000	      0.00000000	      0.00000000
      0.08000000	     65.29112439	     -5.38629849	      2.07951493	      0.64911324	      1.01332030	     -0.21718017	      6.75563054	     -1.65017608	      9.98303019	    -13.12332842	    -26.75725647	     27.89091882	     62.44912539	     -6.77748385	    -15.15003368	      6.20332029	    -57.49237490	    -11.12566766	     32.78809517	     33.25462706	      0.00000000	      0.00000000	      0.00000000
      0.09000000	     65.31835588	     -5.38832592	      2.08370466	      0.64909275	      1.01332888	     -0.21716932	      6.75836291	     -1.63554356	     10.04175947	    -13.06725914	    -26.78523343	     27.84131890	     62.49176312	     -6.80305210	    -15.15209975	      6.20447619	    -57.49363848	    -11.12349451	     32.74929861	     33.25997001	      0.00000000	      0.00000000	      0.00000000
      0.10000000	     65.36902590	     -5.39491035	      2.08698999	      0.64905772	      1.01335114	     -0.21716303	      6.73591885	     -1.61399436	     10.11786466	    -13.00536369	    -26.80979764	     27.78647444	     62.52999987	     -6.85637095	    -15.15993085	      6.20026203	    -57.49115698	    -11.11234401	     32.71124796	     33.26723530	      0.00000000	      0.00000000	      0.00000000
      0.11000000	     65.42956492	     -5.40375544	      2.09001053	      0.64901551	      1.01337285	     -0.21716231	      6.70148628	     -1.58926646	     10.20273387	    -12.94200797	    -26.82862583	     27.72886263	     62.56069189	     -6.92277429	    -15.17067719	      6.19257245	    -57.48444452	    -11.09327570	     32.67576708	     33.27624755	      0.00000000	      0.00000000	      0.00000000
      0.12000000	     65.48577240	     -5.41247854	      2.09304885	      0.64897536	      1.01338813	     -0.21716269	      6.66982701	     -1.56517990	     10.28720100	    -12.88125036	    -26.83977904	     27.67172271	     62.58084706	     -6.98585737	    -15.18109434	      6.18357994	    -57.47502190	    -11.06815535	     32.64421361	     33.28652316	      0.00000000	      0.00000000	      0.00000000
      0.13000000	     65.52641720	     -5.41923480	      2.09579484	      0.64894350	      1.01339967	     -0.21716000	      6.65285307	     -1.54496174	     10.36313110	    -12.82638240	    -26.84218238	     27.61871969	     62.58802100	     -7.03179042	    -15.18850410	      6.17506668	    -57.46559166	    -11.03908067	     32.61705420	     33.29710422	      0.00000000	      0.00000000	      0.00000000
      0.14000000	     65.54511316	     -5.42302340	      2.09750183	      0.64892240	      1.01340603	     -0.21715801	      6.65661590	     -1.53081479	     10.42445294	    -12.77980257	    -26.83583812	     27.57346759	     62.58062934	     -7.05223160	    -15.19124773	      6.16809755	    -57.45870715	    -11.00818582	     32.59366822	     33.30645964	      0.00000000	      0.00000000	      0.00000000
      0.15000000	     65.54081189	     -5.42366817	      2.09746731	      0.64891427	      1.01340098	     -0.21716406	      6.68044734	     -1.52374840	     10.46761164	    -12.74303302	    -26.82178933	     27.53902380	     62.55815692	     -7.04554205	    -15.18872688	      6.16299744	    -57.45556949	    -10.97769906	     32.57235898	     33.31250938	      0.00000000	      0.00000000	      0.00000000
      0.16000000	     65.51718534	     -5.42158435	      2.09549140	      0.64892034	      1.01338481	     -0.21717886	      6.71800117	     -1.52368802	     10.49151310	    -12.71684427	    -26.80189899	     27.51747266	     62.52125041	     -7.01630774	    -15.18125923	      6.15958197	    -57.45545042	    -10.95005155	     32.55052354	     33.31281487	      0.00000000	      0.00000000	      0.00000000
      0.17000000	     65.48114657	     -5.41742305	      2.09204279	      0.64893653	      1.01336698	     -0.21719690	      6.75942429	     -1.52972441	     10.49709064	    -12.70144245	    -26.77851812	     27.50968559	     62.47168429	     -6.97353352	    -15.16988786	      6.15751780	    -57.45598746	    -10.92782061	     32.52492228	     33.30495129	      0.00000000	      0.00000000	      0.00000000
      0.18000000	     65.44102129	     -5.41173681	      2.08816347	      0.64895437	      1.01335573	     -0.21721322	      6.79397757	     -1.54039663	     10.48666449	    -12.69658864	    -26.75409915	     27.51528181	     62.41220486	     -6.92811006	    -15.15613151	      6.15662051	    -57.45431250	    -10.91334062	     32.49199011	     33.28703765	      0.00000000	      0.00000000	      0.00000000
      0.19000000	     65.40497599	     -5.40488601	      2.08519364	      0.64896877	      1.01335225	     -0.21722512	      6.81254006	     -1.55402101	     10.46327603	    -12.70158171	    -26.73080333	     27.53275371	     62.34627881	     -6.89014474	    -15.14162928	      6.15694273	    -57.44864201	    -10.90791376	     32.44814099	     33.25835617	      0.00000000	      0.00000000	      0.00000000
      0.20000000	     65.37987536	     -5.39725652	      2.08432843	      0.64898196	      1.01335464	     -0.21723096	      6.80939053	     -1.56902327	     10.43013576	    -12.71520480	    -26.71016640	     27.55970267	     62.27778505	     -6.86673273	    -15.12770703	      6.15861052	    -57.43970577	    -10.91069063	     32.39003556	     33.21995232	      0.00000000	      0.00000000	      0.00000000
      0.21000000	     65.37040273	     -5.38950402	      2.08609503	      0.64899707	      1.01336099	     -0.21723105	      6.78287644	     -1.58410706	     10.39025897	    -12.73578567	    -26.69290426	     27.59315080	     62.21068145	     -6.86069198	    -15.11502471	      6.16147715	    -57.43131496	    -10.91744690	     32.31479751	     33.17507211	      0.00000000	      0.00000000	      0.00000000
      0.22000000	     65.37840973	     -5.38244562	      2.08994105	      0.64901078	      1.01336760	     -0.21722987	      6.73513022	     -1.59813223	     10.34631087	    -12.76140168	    -26.67891988	     27.62991458	     62.14866899	     -6.87060019	    -15.10350980	      6.16475815	    -57.42953070	    -10.91962498	     32.22017665	     33.12927939	      0.00000000	      0.00000000	      0.00000000
      0.23000000	     65.40257454	     -5.37669407	      2.09415180	      0.64901634	      1.01336862	     -0.21723465	      6.67130310	     -1.60986026	     10.30062632	    -12.79017279	    -26.66751154	     27.66701640	     62.09487858	     -6.89214553	    -15.09261868	      6.16682522	    -57.44030790	    -10.90408820	     32.10466425	     33.09011624	      0.00000000	      0.00000000	      0.00000000
      0.24000000	     65.43831891	     -5.37243385	      2.09624681	      0.64901220	      1.01336024	     -0.21724691	      6.59860062	     -1.61788242	     10.25532926	    -12.82061056	    -26.65770904	     27.70206989	     62.05161431	     -6.92036503	    -15.08181908	      6.16530209	    -57.46606039	    -10.85399700	     31.96755640	     33.06623322	      0.00000000	      0.00000000	      0.00000000
      0.25000000	     65.47801361	     -5.36940293	      2.09387011	      0.64900596	      1.01334389	     -0.21725696	      6.52523972	     -1.62078557	     10.21248056	    -12.85193913	    -26.64861028	     27.73354396	     62.02018678	     -6.95197254	    -15.07115492	      6.15755081	    -57.50218609	    -10.75104179	     31.80894749	     33.06601670	      0.00000000	      0.00000000	      0.00000000
      0.26000000	     65.51195979	     -5.36691620	      2.08597868	      0.64901198	      1.01332748	     -0.21725269	      6.45955032	     -1.61734574	     10.17419932	    -12.88415781	    -26.63958457	     27.76082267	     62.00085425	     -6.98677086	    -15.06166424	      6.14147197	    -57.53501706	    -10.57896772	     31.62964093	     33.09586749	      0.00000000	      0.00000000	      0.00000000
      0.27000000	     65.53082673	     -5.36412862	      2.07385418	      0.64903925	      1.01333137	     -0.21723098	      6.40940247	     -1.60674239	     10.14272226	    -12.91763364	    -26.63027032	     27.78402856	     61.99286800	     -7.02725394	    -15.05530365	      6.11632016	    -57.54276551	    -10.32794650	     31.43098348	     33.15841614	      0.00000000	      0.00000000	      0.00000000
      0.28000000	     65.52937692	     -5.36088105	      2.06125647	      0.64907100	      1.01339259	     -0.21719448	      6.38170965	     -1.58903837	     10.12037603	    -12.95228305	    -26.62041113	     27.80365635	     61.99460446	     -7.07626529	    -15.05416875	      6.08317275	    -57.50066181	     -9.99896508	     31.21465572	     33.25106582	      0.00000000	      0.00000000	      0.00000000
      0.29000000	     65.50962672	     -5.35863113	      2.05316571	      0.64906827	      1.01353178	     -0.21714741	      6.38123952	     -1.56575776	     10.10942660	    -12.98677425	    -26.60968964	     27.82015605	     62.00375537	     -7.13386037	    -15.05923832	      6.04485098	    -57.39034989	     -9.60707844	     30.98247274	     33.36529202	      0.00000000	      0.00000000	      0.00000000
